<?xml version="1.0" encoding="utf-8"?>
<!-- Generator: Adobe Illustrator 26.2.1, SVG Export Plug-In . SVG Version: 6.00 Build 0)  -->
<svg version="1.1" id="Layer_1" xmlns="http://www.w3.org/2000/svg" xmlns:xlink="http://www.w3.org/1999/xlink" x="0px" y="0px"
	 viewBox="0 0 792 136" style="enable-background:new 0 0 792 136;" xml:space="preserve">
<style type="text/css">
	.st0{fill:#F9F9F9;}
	.st1{fill:#FFFFFF;}
</style>
<g>
	<path class="st0" d="M72.6,51c0,0.2-0.6,0.2-0.5,0c3.8-12,0.8-21.3-14.7-21.3h-3.2c-0.4,0-0.7,0.2-0.7,0.4l-22.7,72.1
		c-0.1,0.3,0.1,0.4,0.5,0.4h9.4c0.2,0,0,0.6-0.2,0.6H8.9c-0.2,0,0-0.6,0.2-0.6h9.4c0.4,0,0.7-0.1,0.8-0.4l22.6-72.1
		c0.1-0.2-0.1-0.4-0.5-0.4h-3.1c-15.2,0-23.1,7.9-27.1,20.5c-0.1,0.2-0.6,0.2-0.6,0l6.6-20.8c0-0.1,0.1-0.3,0.3-0.3h61.8
		c0.2,0,0.3,0.2,0.2,0.3L72.6,51z"/>
	<path class="st0" d="M104.9,104.3c-5.5,0-8.3-3.1-8.3-7.4c0-8.4,9.3-20.5,9.3-30c0-2.6-2.1-4.5-4.6-4.5c-4.2,0-10.7,3.5-17.6,15.2
		l-8.1,25.9h-8.3l24-76c0.1-0.3-0.1-0.4-0.5-0.4L85.1,27c-0.2,0-0.1-0.6,0.1-0.6l14.4-0.3c0.3,0,0.3,0.1,0.2,0.3L84.4,75.2
		c6.2-11,16.1-17.3,22.3-17.3c3,0,7.1,2.2,7.1,8.3c0,8.8-9.6,24.6-9.6,31.3c0,2.4,0.9,4,3.1,4c3.2,0,6.6-2.2,9.9-8.4l0.6,0.4
		C114.1,101.1,108.6,104.3,104.9,104.3z"/>
	<path class="st0" d="M138.8,79.9h-7.5c-1.8,6.4-2.7,10.6-2.7,13.6c0,5,1.8,10.2,9.3,10.2c8.4,0,12.5-3.6,16.3-8.3l0.5,0.3
		c-4.9,5.9-9.4,8.6-16.4,8.6c-9.4,0-16.5-7.2-16.5-17.6c0-15,12.8-28.8,26.8-28.8c8.8,0,11.6,4.8,11.6,8.5
		C160.1,74.7,151,79.9,138.8,79.9z M148.5,58.4c-10.1,0-13.5,8-17.1,20.8h5.2c12.8,0,17.1-9.2,17.1-15.8
		C153.8,60.2,152.1,58.4,148.5,58.4z"/>
</g>
<g>
	<path class="st1" d="M216.8,105.1c-7.9,0-12.3-4.3-15.9-4.3c-2.8,0-5.1,2.1-5.5,4c0,0.3-1.4,0.3-1.4,0V81.2c0-0.2,1.4-0.2,1.4,0
		c0,8.5,8.5,22.3,21.4,22.3c11.5,0,17.6-7.6,17.6-14.4c0-10.1-6.5-12.8-21.8-18.5c-9.3-3.7-16.6-8.9-16.6-21.3
		c0-11.9,8.5-22,18.6-22c6.4,0,8.3,2.8,12,2.8c3,0,3.9-1.4,4.1-2.5c0-0.3,1.6-0.3,1.6,0v17.8c0,0.2-1.6,0.2-1.6,0
		c0-9.9-7.7-16.4-16-16.4c-7.9,0-13.7,6.3-13.7,13.4c0,7.5,5.9,12.1,18.3,16.9c12.9,4.8,20.9,9.7,20.9,22.5
		C240.1,91.4,232.5,105.1,216.8,105.1z"/>
	<path class="st1" d="M315.3,30.8c-0.2,0-0.4,0.1-0.4,0.4v50.2c0,14.4-7.3,23.8-24.1,23.8c-14.9,0-25.5-7.6-25.5-23.2V31.2
		c0-0.3-0.2-0.4-0.5-0.4h-8.8c-0.2,0-0.2-1.7,0-1.7h30.2c0.2,0,0.2,1.7,0,1.7h-8.8c-0.4,0-0.6,0.1-0.6,0.4v50.7
		c0,14.3,5.7,20.7,16.8,20.7c13.8,0,19.8-8.7,19.8-21.3V31.2c0-0.3-0.2-0.4-0.6-0.4h-8c-0.2,0-0.2-1.7,0-1.7h19.6
		c0.2,0,0.2,1.7,0,1.7H315.3z"/>
	<path class="st1" d="M340,103.3c-0.2,0-0.2-1.7,0-1.7h8.7c0.4,0,0.6-0.1,0.6-0.4v-70c0-0.3-0.2-0.4-0.6-0.4H340
		c-0.2,0-0.2-1.7,0-1.7h30.3c0.2,0,0.2,1.7,0,1.7h-8.9c-0.4,0-0.6,0.1-0.6,0.4v70c0,0.3,0.2,0.4,0.6,0.4h8.9c0.2,0,0.2,1.7,0,1.7
		H340z"/>
	<path class="st1" d="M443.8,52c0-12.1-6-21.3-20.4-21.3h-1.3c-0.4,0-0.6,0.1-0.6,0.4v70c0,0.3,0.2,0.4,0.6,0.4h8.7
		c0.2,0,0.2,1.7,0,1.7h-30c-0.2,0-0.2-1.7,0-1.7h8.7c0.4,0,0.6-0.1,0.6-0.4v-70c0-0.3-0.2-0.4-0.6-0.4h-1.3
		c-14.6,0-19.8,9.1-19.8,21.3c0,0.2-1.5,0.2-1.5,0V29.4c0-0.1,0.1-0.3,0.3-0.3H445c0.2,0,0.2,0.2,0.2,0.3V52
		C445.2,52.2,443.8,52.2,443.8,52z"/>
	<path class="st1" d="M510.5,105.1c-7.9,0-12.3-4.3-15.9-4.3c-2.8,0-5.1,2.1-5.5,4c0,0.3-1.4,0.3-1.4,0V81.2c0-0.2,1.4-0.2,1.4,0
		c0,8.5,8.5,22.3,21.4,22.3c11.5,0,17.6-7.6,17.6-14.4c0-10.1-6.5-12.8-21.8-18.5c-9.3-3.7-16.6-8.9-16.6-21.3
		c0-11.9,8.5-22,18.6-22c6.4,0,8.3,2.8,12,2.8c3,0,3.9-1.4,4.1-2.5c0-0.3,1.6-0.3,1.6,0v17.8c0,0.2-1.6,0.2-1.6,0
		c0-9.9-7.7-16.4-16-16.4c-7.9,0-13.7,6.3-13.7,13.4c0,7.5,5.9,12.1,18.3,16.9c12.9,4.8,20.9,9.7,20.9,22.5
		C533.9,91.4,526.2,105.1,510.5,105.1z"/>
	<path class="st1" d="M592.3,103.3c-0.2,0-0.2-1.7,0-1.7h7.7c0.4,0,0.6-0.1,0.6-0.4V65.5h-28.4v35.7c0,0.3,0.2,0.4,0.7,0.4h7.7
		c0.2,0,0.2,1.7,0,1.7h-29.2c-0.2,0-0.2-1.7,0-1.7h8.7c0.4,0,0.6-0.1,0.6-0.4v-70c0-0.3-0.2-0.4-0.6-0.4h-8.7c-0.2,0-0.2-1.7,0-1.7
		h29.2c0.2,0,0.2,1.7,0,1.7H573c-0.5,0-0.7,0.1-0.7,0.4v32.7h28.4V31.2c0-0.3-0.2-0.4-0.6-0.4h-7.7c-0.2,0-0.2-1.7,0-1.7h29.2
		c0.2,0,0.2,1.7,0,1.7h-8.7c-0.4,0-0.6,0.1-0.6,0.4v70c0,0.3,0.2,0.4,0.6,0.4h8.7c0.2,0,0.2,1.7,0,1.7H592.3z"/>
	<path class="st1" d="M673.5,105.1c-17.8,0-32.4-17.4-32.4-38.8c0-20.8,13.6-38.9,32.4-38.9c18,0,32.5,17.4,32.5,38.9
		C706,87.7,691.6,105.1,673.5,105.1z M685.9,32.9c-3.3-2.9-7.4-3.9-12.4-3.9s-8.9,0.9-12.1,3.9c-5.1,4.9-8,15.5-8,33.4
		c0,20.5,2.8,28.4,8,33.3c3.2,3,7.2,4,12.1,4s9-0.9,12.4-4c5.1-4.9,7.9-12.8,7.9-33.3C693.8,48.4,691,37.8,685.9,32.9z"/>
	<path class="st1" d="M756.9,73.9c-4.3,0-7.5-0.5-10.3-1.3v28.6c0,0.3,0.2,0.4,0.6,0.4h8.8c0.2,0,0.2,1.7,0,1.7h-30.3
		c-0.2,0-0.2-1.7,0-1.7h8.8c0.3,0,0.5-0.1,0.5-0.4v-70c0-0.3-0.2-0.4-0.5-0.4h-8.8c-0.2,0-0.2-1.7,0-1.7h29.4
		c17.9,0,27.6,10.5,27.6,23.2C782.8,65,772.5,73.9,756.9,73.9z M755.2,30.8h-8c-0.4,0-0.6,0.1-0.6,0.4v39.4
		c2.9,1.4,6.1,1.7,10.3,1.7c9.2,0,14.7-4.8,14.7-19.9C771.5,37.2,764.5,30.8,755.2,30.8z"/>
</g>
</svg>
